<svg width="63" height="63" viewBox="0 0 63 63" fill="none" xmlns="http://www.w3.org/2000/svg">
<g filter="url(#filter0_d_1_695)">
<circle cx="31.5" cy="29.5" r="27.5" fill="#F57E88"/>
<path d="M42.2356 35.1926H25.9524L26.7699 33.5273L40.3543 33.5027C40.8137 33.5027 41.2074 33.1746 41.2895 32.7207L43.1707 22.1906C43.2199 21.9145 43.1461 21.6301 42.9656 21.4141C42.8765 21.3078 42.7652 21.2221 42.6396 21.1631C42.514 21.1041 42.3771 21.0731 42.2383 21.0723L24.9571 21.0148L24.8094 20.3203C24.7164 19.8773 24.3172 19.5547 23.8633 19.5547H19.6387C19.3827 19.5547 19.1372 19.6564 18.9562 19.8374C18.7752 20.0184 18.6735 20.2639 18.6735 20.5199C18.6735 20.7759 18.7752 21.0214 18.9562 21.2024C19.1372 21.3835 19.3827 21.4852 19.6387 21.4852H23.0813L23.7266 24.5531L25.3153 32.2449L23.2699 35.5836C23.1637 35.727 23.0998 35.8972 23.0853 36.075C23.0708 36.2528 23.1063 36.4312 23.1879 36.5898C23.352 36.9152 23.6828 37.1203 24.0492 37.1203H25.7664C25.4003 37.6065 25.2026 38.1988 25.2031 38.8074C25.2031 40.3551 26.461 41.6129 28.0086 41.6129C29.5563 41.6129 30.8141 40.3551 30.8141 38.8074C30.8141 38.1977 30.6117 37.6043 30.2508 37.1203H34.6559C34.2898 37.6065 34.0921 38.1988 34.0926 38.8074C34.0926 40.3551 35.3504 41.6129 36.8981 41.6129C38.4457 41.6129 39.7035 40.3551 39.7035 38.8074C39.7035 38.1977 39.5012 37.6043 39.1403 37.1203H42.2383C42.7688 37.1203 43.2035 36.6883 43.2035 36.1551C43.2019 35.8993 43.0993 35.6546 42.9179 35.4743C42.7366 35.294 42.4913 35.1927 42.2356 35.1926V35.1926ZM25.359 22.918L41.1035 22.9699L39.5614 31.6051L27.1938 31.627L25.359 22.918ZM28.0086 39.6715C27.5328 39.6715 27.1446 39.2832 27.1446 38.8074C27.1446 38.3316 27.5328 37.9434 28.0086 37.9434C28.4844 37.9434 28.8727 38.3316 28.8727 38.8074C28.8727 39.0366 28.7816 39.2564 28.6196 39.4184C28.4576 39.5804 28.2378 39.6715 28.0086 39.6715V39.6715ZM36.8981 39.6715C36.4223 39.6715 36.034 39.2832 36.034 38.8074C36.034 38.3316 36.4223 37.9434 36.8981 37.9434C37.3739 37.9434 37.7621 38.3316 37.7621 38.8074C37.7621 39.0366 37.6711 39.2564 37.5091 39.4184C37.347 39.5804 37.1272 39.6715 36.8981 39.6715V39.6715Z" fill="#FEFEFE"/>
</g>
<circle cx="52" cy="45.0004" r="7" fill="#C20000"/>
<defs>
<filter id="filter0_d_1_695" x="0" y="0" width="63" height="63" filterUnits="userSpaceOnUse" color-interpolation-filters="sRGB">
<feFlood flood-opacity="0" result="BackgroundImageFix"/>
<feColorMatrix in="SourceAlpha" type="matrix" values="0 0 0 0 0 0 0 0 0 0 0 0 0 0 0 0 0 0 127 0" result="hardAlpha"/>
<feOffset dy="2"/>
<feGaussianBlur stdDeviation="2"/>
<feComposite in2="hardAlpha" operator="out"/>
<feColorMatrix type="matrix" values="0 0 0 0 0 0 0 0 0 0 0 0 0 0 0 0 0 0 0.25 0"/>
<feBlend mode="normal" in2="BackgroundImageFix" result="effect1_dropShadow_1_695"/>
<feBlend mode="normal" in="SourceGraphic" in2="effect1_dropShadow_1_695" result="shape"/>
</filter>
</defs>
</svg>
