<svg width="20" height="20" viewBox="0 0 20 20" fill="none" xmlns="http://www.w3.org/2000/svg">
<path d="M11.1111 4.44444H4.44444V6.66667H11.1111V4.44444ZM11.1111 8.88889H4.44444V11.1111H11.1111V8.88889ZM11.1111 13.3333H4.44444V15.5556H11.1111V13.3333ZM15.5556 4.44444H13.3333V6.66667H15.5556V4.44444ZM15.5556 8.88889H13.3333V11.1111H15.5556V8.88889ZM15.5556 13.3333H13.3333V15.5556H15.5556V13.3333ZM1 0H19C19.5556 0 20 0.444445 20 1V19C20 19.4444 19.5556 20 19 20H1C0.555555 20 0 19.4444 0 19V1C0 0.444445 0.555555 0 1 0ZM2.22222 17.7778H17.7778V2.22222H2.22222V17.7778Z" fill="#F57E88"/>
</svg>
