<svg width="23" height="22" viewBox="0 0 23 22" fill="none" xmlns="http://www.w3.org/2000/svg">
<path d="M8.2 0C3.96044 0 0.5 3.46044 0.5 7.7C0.5 11.9396 3.96044 15.4 8.2 15.4C10.1228 15.4 11.8795 14.6828 13.2316 13.5094L13.7 13.9777V15.4L20.3 22L22.5 19.8L15.9 13.2H14.4777L14.0094 12.7316C15.1828 11.3795 15.9 9.6228 15.9 7.7C15.9 3.46044 12.4396 0 8.2 0ZM8.2 2.2C11.2506 2.2 13.7 4.64941 13.7 7.7C13.7 10.7506 11.2506 13.2 8.2 13.2C5.14941 13.2 2.7 10.7506 2.7 7.7C2.7 4.64941 5.14941 2.2 8.2 2.2Z" fill="#F57E88"/>
</svg>
