<svg width="21" height="22" viewBox="0 0 21 22" fill="none" xmlns="http://www.w3.org/2000/svg">
<path d="M10.5 2.83035C11.95 2.83035 13.125 4.08928 13.125 5.64285C13.125 7.19642 11.95 8.45535 10.5 8.45535C9.05 8.45535 7.875 7.19642 7.875 5.64285C7.875 4.08928 9.05 2.83035 10.5 2.83035ZM10.5 14.8839C14.2125 14.8839 18.125 16.8393 18.125 17.6964V19.1696H2.875V17.6964C2.875 16.8393 6.7875 14.8839 10.5 14.8839ZM10.5 0.285706C7.7375 0.285706 5.5 2.68303 5.5 5.64285C5.5 8.60267 7.7375 11 10.5 11C13.2625 11 15.5 8.60267 15.5 5.64285C15.5 2.68303 13.2625 0.285706 10.5 0.285706ZM10.5 12.3393C7.1625 12.3393 0.5 14.1339 0.5 17.6964V21.7143H20.5V17.6964C20.5 14.1339 13.8375 12.3393 10.5 12.3393Z" fill="#F57E88"/>
</svg>
